<svg id="Products" fill="#fff" enable-background="new 0 0 128 128" height="512" viewBox="0 0 128 128" width="512" xmlns="http://www.w3.org/2000/svg"><g><path d="m37.13 102.377c1.105 0 2.013.879 2.013 1.984s-.907 2.014-2.013 2.014h-31.264c-1.586 0-3.06-.652-4.138-1.73-1.076-1.049-1.728-2.522-1.728-4.138v-94.64c0-1.616.652-3.062 1.728-4.138 1.078-1.077 2.523-1.729 4.138-1.729h116.237c1.617 0 3.09.652 4.168 1.729 1.049 1.077 1.729 2.522 1.729 4.138v94.64c0 1.616-.68 3.089-1.729 4.138-1.078 1.078-2.551 1.73-4.168 1.73h-16.92c-1.105 0-2.012-.908-2.012-2.014s.906-1.984 2.012-1.984h16.92c.539 0 .992-.227 1.334-.566.34-.34.566-.792.566-1.304v-78.71h-120.006v78.71c0 .512.227.964.567 1.304v.027c.34.342.792.539 1.302.539zm76.443-93.478c1.105 0 1.984.879 1.984 1.984s-.879 2.013-1.984 2.013h-68.053c-1.105 0-2.013-.907-2.013-2.013s.907-1.984 2.013-1.984zm10.431 8.901v-11.933c0-.51-.227-.964-.566-1.304-.342-.34-.795-.567-1.334-.567h-116.238c-.51 0-.962.227-1.302.567-.341.34-.567.794-.567 1.304v11.933z"/><path clip-rule="evenodd" d="m11.905 8.956c1.076 0 1.927.879 1.927 1.928 0 1.077-.851 1.956-1.927 1.956-1.078 0-1.927-.879-1.927-1.956 0-1.049.849-1.928 1.927-1.928zm16.893 0c1.076 0 1.927.879 1.927 1.928 0 1.077-.851 1.956-1.927 1.956-1.078 0-1.957-.879-1.957-1.956 0-1.049.879-1.928 1.957-1.928zm-8.446 0c1.076 0 1.926.879 1.926 1.928 0 1.077-.851 1.956-1.926 1.956-1.078 0-1.957-.879-1.957-1.956 0-1.049.878-1.928 1.957-1.928z" fill-rule="evenodd"/><path d="m15.674 30.979h19.67c1.105 0 2.097.454 2.834 1.162.737.737 1.162 1.729 1.162 2.834v19.699c0 1.077-.481 2.267-1.304 2.947-.709.652-1.672 1.049-2.693 1.049h-19.67c-2.21 0-4.025-1.814-4.025-3.996v-19.698c.001-2.211 1.815-3.997 4.026-3.997zm19.67 3.997h-19.67v19.699h19.67z"/><path d="m45.633 34.976c-1.105 0-1.983-.907-1.983-2.012s.878-1.984 1.983-1.984h11.252c1.105 0 2.013.879 2.013 1.984s-.907 2.012-2.013 2.012zm0 9.297c-1.105 0-1.983-.879-1.983-1.984s.878-2.012 1.983-2.012h6.689c1.105 0 2.012.907 2.012 2.012s-.906 1.984-2.012 1.984z"/><path d="m73.099 30.979h19.699c2.211 0 3.996 1.786 3.996 3.997v19.699c0 1.077-.482 2.267-1.332 2.947-.709.652-1.645 1.049-2.664 1.049h-19.699c-2.184 0-3.997-1.814-3.997-3.996v-19.699c0-2.211 1.813-3.997 3.997-3.997zm19.699 3.997h-19.699v19.699h19.699z"/><path d="m103.086 34.976c-1.105 0-2.012-.907-2.012-2.012s.906-1.984 2.012-1.984h11.253c1.105 0 1.984.879 1.984 1.984s-.879 2.012-1.984 2.012zm0 9.297c-1.105 0-2.012-.879-2.012-1.984s.906-2.012 2.012-2.012h6.689c1.104 0 2.013.907 2.013 2.012s-.908 1.984-2.013 1.984z"/><path d="m15.674 68.422h19.67c2.21 0 3.997 1.786 3.997 3.997v19.67c0 2.211-1.786 4.025-3.997 4.025h-19.67c-2.21 0-4.025-1.814-4.025-4.025v-19.67c0-2.211 1.814-3.997 4.025-3.997zm0 3.997v19.67h19.67s0 .027 0 0v-19.67z"/><path d="m103.086 72.419c-1.105 0-2.012-.908-2.012-2.014 0-1.104.906-1.983 2.012-1.983h11.253c1.105 0 1.984.879 1.984 1.983 0 1.105-.879 2.014-1.984 2.014zm0 9.296c-1.105 0-2.012-.906-2.012-2.011s.906-1.984 2.012-1.984h6.689c1.104 0 2.013.879 2.013 1.984 0 1.104-.908 2.011-2.013 2.011z"/><path d="m44.386 71.228c-1.814-3.798-1.162-8.361 2.863-10.231 3.969-1.899 8.021.425 9.807 4.223l8.306 17.402c.537-.113 1.445-.311 2.324-.48 3.456-.738 6.349-1.361 11.14-1.871 1.868-.17 3.938.254 5.696 1.189 1.758.879 3.26 2.268 4.053 3.941 3.741 7.907 7.511 15.788 11.252 23.695 1.729 3.599.17 7.937-3.429 9.665l-17.402 8.276c-1.277.596-2.893.936-4.48.963-2.039 0-4.08-.51-5.753-1.303l-20.294-9.608c-.085.197-7.341-3.543-5.13-9.608 1.502-4.111 5.98-4.99 9.835-3.828l7.681 2.154-2.238-4.647-2.466-5.188zm3.599-1.702 11.792 24.744 2.465 5.16 4.082 8.587c.227.455.283.965.143 1.447-.313 1.076-1.418 1.699-2.467 1.389l-11.933-3.373c-1.671-.512-4.251-.625-4.988 1.359-.737 2.07 1.332 3.854 3.004 4.62l20.236 9.579c.086 0 .682.199.652.199 1.332.453 3.941 1.332 6.293.199l17.432-8.276c1.615-.795 2.297-2.75 1.531-4.364l-11.225-23.581c-.566-1.078-1.219-1.645-2.295-2.211-1.135-.596-2.381-.879-3.458-.766-4.563.48-7.369 1.076-10.714 1.814-.623.113-1.275.254-2.607.537-1.672.34-3.345-.48-4.083-2.041l-8.39-17.629c-.821-1.729-2.55-3.231-4.505-2.324-1.957.907-1.758 3.231-.965 4.931z"/><path d="m73.099 74.034c0 1.105-.879 2.012-1.984 2.012s-2.013-.906-2.013-2.012v-1.615c0-2.211 1.813-3.997 3.997-3.997h19.699c1.105 0 2.098.426 2.834 1.161.709.738 1.162 1.73 1.162 2.836v7.285c0 1.104-.879 2.011-1.984 2.011s-2.012-.906-2.012-2.011v-7.285h-19.699z"/></g></svg>